<?xml version="1.0" standalone="no"?>
<!DOCTYPE svg PUBLIC "-//W3C//DTD SVG 20010904//EN"
 "http://www.w3.org/TR/2001/REC-SVG-20010904/DTD/svg10.dtd">
<svg version="1.0" xmlns="http://www.w3.org/2000/svg"
 width="108.000000pt" height="101.000000pt" viewBox="0 0 108.000000 101.000000"
 preserveAspectRatio="xMidYMid meet">

<g transform="translate(0.000000,101.000000) scale(0.100000,-0.100000)"
fill="#000000" stroke="none">
<path d="M447 913 c-3 -5 41 -8 98 -8 57 0 101 3 98 8 -2 4 -46 7 -98 7 -52 0
-96 -3 -98 -7z"/>
<path d="M358 883 c-10 -2 -18 -9 -18 -14 0 -12 3 -12 36 6 28 14 19 18 -18 8z"/>
<path d="M703 876 c19 -19 40 -21 35 -3 -3 6 -15 14 -28 15 -21 4 -22 2 -7
-12z"/>
<path d="M295 843 c-18 -14 -18 -15 -2 -9 10 3 23 6 28 6 5 0 9 5 9 10 0 14
-12 12 -35 -7z"/>
<path d="M760 851 c0 -5 8 -12 19 -16 10 -3 26 -14 36 -25 20 -22 35 -26 35
-10 0 6 -8 14 -17 17 -10 4 -24 15 -31 25 -14 19 -42 25 -42 9z"/>
<path d="M250 805 c-7 -8 -8 -15 -2 -15 5 0 15 7 22 15 7 8 8 15 2 15 -5 0
-15 -7 -22 -15z"/>
<path d="M228 773 c7 -3 16 -2 19 1 4 3 -2 6 -13 5 -11 0 -14 -3 -6 -6z"/>
<path d="M528 773 c7 -3 16 -2 19 1 4 3 -2 6 -13 5 -11 0 -14 -3 -6 -6z"/>
<path d="M856 765 c4 -8 10 -15 15 -15 5 0 17 -16 26 -35 9 -19 24 -35 32 -35
13 0 13 -2 2 -9 -7 -5 -10 -14 -7 -20 4 -6 11 -9 15 -7 4 3 7 -5 7 -17 -1 -14
4 -21 13 -19 12 3 12 1 1 -13 -12 -14 -11 -18 1 -26 8 -5 9 -9 2 -9 -15 0 -10
-49 6 -60 9 -5 8 -9 -6 -14 -17 -7 -17 -8 1 -22 17 -12 18 -14 3 -14 -9 0 -17
-4 -17 -10 0 -5 6 -10 13 -10 9 0 9 -2 -1 -8 -7 -5 -10 -16 -6 -25 3 -10 1
-17 -5 -17 -6 0 -11 -9 -11 -20 0 -11 -4 -20 -10 -20 -17 0 -11 -18 8 -23 13
-4 12 -5 -5 -6 -28 -1 -38 -17 -19 -28 11 -6 12 -13 6 -23 -7 -10 -10 -11 -10
-2 0 6 -5 12 -11 12 -6 0 -9 -8 -7 -18 4 -14 0 -18 -16 -18 -14 1 -21 -5 -20
-16 1 -12 -5 -18 -18 -18 -15 0 -19 -5 -15 -20 4 -17 0 -20 -25 -20 -25 0 -29
-3 -25 -19 3 -14 0 -17 -14 -14 -21 6 -49 -18 -49 -41 0 -9 -7 -16 -15 -16 -8
0 -15 5 -15 10 0 14 -37 12 -43 -2 -4 -10 -6 -10 -6 0 -1 14 -41 17 -41 2 0
-15 -107 -13 -113 3 -4 9 -8 8 -16 -3 -7 -10 -11 -11 -11 -2 0 6 -11 12 -25
12 -15 0 -25 -6 -25 -14 0 -31 44 -39 195 -39 98 0 115 3 160 26 66 34 166
126 200 183 30 51 55 154 55 224 0 85 -45 205 -90 243 -11 10 -18 22 -15 27 3
6 -1 10 -9 10 -9 0 -16 7 -16 15 0 8 -7 15 -15 15 -9 0 -12 -6 -9 -15z"/>
<path d="M640 760 c0 -5 5 -10 10 -10 6 0 10 5 10 10 0 6 -4 10 -10 10 -5 0
-10 -4 -10 -10z"/>
<path d="M190 735 c-8 -9 -8 -15 -2 -15 12 0 26 19 19 26 -2 2 -10 -2 -17 -11z"/>
<path d="M160 695 c0 -8 5 -15 10 -15 6 0 10 7 10 15 0 8 -4 15 -10 15 -5 0
-10 -7 -10 -15z"/>
<path d="M140 661 c0 -6 5 -13 10 -16 6 -3 10 1 10 9 0 9 -4 16 -10 16 -5 0
-10 -4 -10 -9z"/>
<path d="M765 660 c-3 -5 -1 -10 4 -10 6 0 11 5 11 10 0 6 -2 10 -4 10 -3 0
-8 -4 -11 -10z"/>
<path d="M130 626 c0 -9 5 -16 10 -16 6 0 10 4 10 9 0 6 -4 13 -10 16 -5 3
-10 -1 -10 -9z"/>
<path d="M120 585 c0 -8 5 -15 10 -15 6 0 10 7 10 15 0 8 -4 15 -10 15 -5 0
-10 -7 -10 -15z"/>
<path d="M485 589 c-11 -17 4 -24 25 -11 11 7 27 12 35 12 8 0 24 -5 35 -12
10 -7 23 -9 27 -5 13 14 -20 27 -69 27 -26 0 -50 -5 -53 -11z"/>
<path d="M452 554 c-7 -8 -10 -14 -6 -14 3 0 1 -6 -5 -14 -8 -10 -9 -16 -1
-21 5 -3 10 1 10 9 0 8 7 21 15 30 8 8 12 17 8 19 -5 3 -14 -1 -21 -9z"/>
<path d="M620 561 c0 -5 6 -21 14 -36 l15 -28 -1 31 c-1 17 -7 33 -15 36 -7 3
-13 2 -13 -3z"/>
<path d="M110 530 c0 -16 4 -30 9 -30 5 0 9 14 9 30 -1 17 -5 30 -10 30 -4 0
-8 -13 -8 -30z"/>
<path d="M838 513 c7 -3 16 -2 19 1 4 3 -2 6 -13 5 -11 0 -14 -3 -6 -6z"/>
<path d="M893 513 c9 -2 25 -2 35 0 9 3 1 5 -18 5 -19 0 -27 -2 -17 -5z"/>
<path d="M110 460 c0 -16 4 -30 8 -30 5 0 9 14 10 30 0 17 -4 30 -9 30 -5 0
-9 -13 -9 -30z"/>
<path d="M635 456 c-5 -25 -15 -39 -38 -51 l-32 -16 30 6 c28 6 50 27 50 50 0
6 4 15 8 22 4 6 3 14 -2 18 -6 3 -13 -10 -16 -29z"/>
<path d="M873 473 c15 -2 37 -2 50 0 12 2 0 4 -28 4 -27 0 -38 -2 -22 -4z"/>
<path d="M444 449 c-3 -6 -1 -16 5 -22 8 -8 11 -5 11 11 0 24 -5 28 -16 11z"/>
<path d="M810 440 c0 -5 5 -10 10 -10 6 0 10 5 10 10 0 6 -4 10 -10 10 -5 0
-10 -4 -10 -10z"/>
<path d="M120 405 c0 -8 5 -15 10 -15 6 0 10 7 10 15 0 8 -4 15 -10 15 -5 0
-10 -7 -10 -15z"/>
<path d="M260 405 c0 -8 5 -15 10 -15 6 0 10 7 10 15 0 8 -4 15 -10 15 -5 0
-10 -7 -10 -15z"/>
<path d="M472 408 c3 -7 13 -15 24 -17 16 -3 17 -1 5 13 -16 19 -34 21 -29 4z"/>
<path d="M863 403 c15 -2 39 -2 55 0 15 2 2 4 -28 4 -30 0 -43 -2 -27 -4z"/>
<path d="M130 364 c0 -8 5 -12 10 -9 6 3 10 10 10 16 0 5 -4 9 -10 9 -5 0 -10
-7 -10 -16z"/>
<path d="M790 365 c0 -8 7 -15 15 -15 9 0 12 6 9 15 -4 8 -10 15 -15 15 -5 0
-9 -7 -9 -15z"/>
<path d="M738 363 c6 -2 18 -2 25 0 6 3 1 5 -13 5 -14 0 -19 -2 -12 -5z"/>
<path d="M843 363 c9 -2 25 -2 35 0 9 3 1 5 -18 5 -19 0 -27 -2 -17 -5z"/>
<path d="M148 344 c-8 -12 12 -64 25 -64 4 0 7 7 7 15 0 8 -4 15 -9 15 -5 0
-11 10 -13 23 -2 13 -6 18 -10 11z"/>
<path d="M320 301 c0 -10 19 -25 25 -20 1 2 -3 10 -11 17 -8 7 -14 8 -14 3z"/>
<path d="M663 293 c9 -2 25 -2 35 0 9 3 1 5 -18 5 -19 0 -27 -2 -17 -5z"/>
<path d="M738 293 c6 -2 18 -2 25 0 6 3 1 5 -13 5 -14 0 -19 -2 -12 -5z"/>
<path d="M180 255 c0 -8 7 -15 15 -15 8 0 15 4 15 9 0 5 -7 11 -15 15 -9 3
-15 0 -15 -9z"/>
<path d="M630 260 l-25 -8 28 -1 c15 -1 27 4 27 9 0 6 -1 10 -2 9 -2 -1 -14
-5 -28 -9z"/>
<path d="M710 260 c-13 -8 -12 -10 3 -10 9 0 17 5 17 10 0 12 -1 12 -20 0z"/>
<path d="M758 253 c6 -2 18 -2 25 0 6 3 1 5 -13 5 -14 0 -19 -2 -12 -5z"/>
<path d="M848 253 c6 -2 18 -2 25 0 6 3 1 5 -13 5 -14 0 -19 -2 -12 -5z"/>
<path d="M207 234 c-8 -8 1 -24 14 -24 5 0 9 7 9 15 0 15 -12 20 -23 9z"/>
<path d="M510 220 c0 -5 5 -10 10 -10 6 0 10 5 10 10 0 6 -4 10 -10 10 -5 0
-10 -4 -10 -10z"/>
<path d="M615 220 c3 -5 8 -10 11 -10 2 0 4 5 4 10 0 6 -5 10 -11 10 -5 0 -7
-4 -4 -10z"/>
<path d="M650 226 c0 -2 7 -6 15 -10 8 -3 15 -1 15 4 0 6 -7 10 -15 10 -8 0
-15 -2 -15 -4z"/>
<path d="M240 185 c0 -8 5 -15 10 -15 6 0 10 7 10 15 0 8 -4 15 -10 15 -5 0
-10 -7 -10 -15z"/>
<path d="M653 183 c9 -2 23 -2 30 0 6 3 -1 5 -18 5 -16 0 -22 -2 -12 -5z"/>
<path d="M778 183 c6 -2 18 -2 25 0 6 3 1 5 -13 5 -14 0 -19 -2 -12 -5z"/>
<path d="M288 140 c10 -12 18 -16 21 -9 2 6 -3 15 -10 20 -24 15 -29 10 -11
-11z"/>
<path d="M558 143 c17 -2 47 -2 65 0 17 2 3 4 -33 4 -36 0 -50 -2 -32 -4z"/>
<path d="M728 143 c6 -2 18 -2 25 0 6 3 1 5 -13 5 -14 0 -19 -2 -12 -5z"/>
<path d="M327 123 c-2 -5 9 -18 24 -31 24 -20 29 -21 29 -7 0 29 -41 58 -53
38z"/>
<path d="M498 113 c7 -3 16 -2 19 1 4 3 -2 6 -13 5 -11 0 -14 -3 -6 -6z"/>
<path d="M548 113 c7 -3 16 -2 19 1 4 3 -2 6 -13 5 -11 0 -14 -3 -6 -6z"/>
</g>
</svg>
