<?xml version="1.0" standalone="no"?>
<!DOCTYPE svg PUBLIC "-//W3C//DTD SVG 20010904//EN"
 "http://www.w3.org/TR/2001/REC-SVG-20010904/DTD/svg10.dtd">
<svg version="1.0" xmlns="http://www.w3.org/2000/svg"
 width="294.000000pt" height="295.000000pt" viewBox="0 0 294.000000 295.000000"
 preserveAspectRatio="xMidYMid meet">

<g transform="translate(0.000000,295.000000) scale(0.100000,-0.100000)"
fill="#000000" stroke="none">
<path d="M1309 2758 c-1 -17 -3 -18 -6 -5 -5 18 -53 25 -53 7 0 -5 -22 -10
-50 -10 -43 0 -50 -3 -50 -20 0 -17 7 -20 51 -20 49 0 70 10 82 40 4 12 6 11
6 -2 1 -19 31 -25 31 -7 0 8 4 8 13 0 11 -8 13 -6 12 12 -2 31 -35 36 -36 5z"/>
<path d="M1363 2764 c-3 -8 0 -21 7 -27 10 -10 12 -8 7 6 -4 10 -3 15 2 12 5
-3 12 -1 15 4 3 5 -1 12 -9 15 -9 3 -18 -1 -22 -10z"/>
<path d="M1413 2764 c-3 -8 0 -21 7 -27 10 -10 12 -8 7 6 -4 10 -3 15 2 12 5
-3 12 -1 15 4 3 5 -1 12 -9 15 -9 3 -18 -1 -22 -10z"/>
<path d="M1463 2764 c-3 -8 0 -21 7 -27 10 -10 12 -8 7 6 -4 10 -3 15 2 12 5
-3 12 -1 15 4 3 5 -1 12 -9 15 -9 3 -18 -1 -22 -10z"/>
<path d="M1513 2764 c-3 -8 0 -21 7 -27 10 -10 12 -8 7 6 -4 10 -3 15 2 12 5
-3 12 -1 15 4 3 5 -1 12 -9 15 -9 3 -18 -1 -22 -10z"/>
<path d="M1560 2753 c0 -19 3 -24 9 -14 6 9 11 10 15 2 4 -6 20 -11 37 -11 16
0 29 -4 29 -10 0 -5 25 -10 55 -10 49 0 55 2 55 21 0 20 -4 21 -65 17 -36 -2
-65 0 -65 5 0 4 5 5 10 2 6 -3 10 -1 10 4 0 6 -9 11 -20 11 -12 0 -17 -5 -14
-13 3 -8 -2 -14 -11 -14 -8 0 -14 7 -13 16 2 8 -5 17 -14 19 -14 3 -18 -3 -18
-25z"/>
<path d="M1778 2730 c2 -16 5 -30 7 -30 2 0 5 14 7 30 3 19 0 30 -7 30 -7 0
-10 -11 -7 -30z"/>
<path d="M1028 2675 c-2 -21 0 -35 7 -35 7 0 9 14 7 35 -2 19 -5 35 -7 35 -2
0 -5 -16 -7 -35z"/>
<path d="M1071 2678 c-1 -30 3 -38 17 -38 11 0 13 3 5 8 -6 4 -13 21 -16 37
-4 27 -4 27 -6 -7z"/>
<path d="M1821 2678 c-1 -30 3 -38 17 -38 11 0 13 3 5 8 -6 4 -13 21 -16 37
-4 27 -4 27 -6 -7z"/>
<path d="M1879 2678 l-5 -38 38 0 c31 0 38 -4 38 -20 0 -18 7 -20 56 -20 47 0
55 3 50 16 -3 9 -6 18 -6 20 0 2 -9 4 -20 4 -13 0 -22 9 -26 25 -6 22 -11 25
-55 25 -44 0 -49 -2 -50 -22 -1 -15 -4 -10 -8 12 l-7 35 -5 -37z"/>
<path d="M944 2675 c-4 -8 -10 -12 -15 -9 -5 3 -12 -2 -15 -10 -4 -10 -18 -16
-35 -16 -22 0 -29 -5 -29 -20 0 -16 7 -20 30 -20 21 0 30 5 30 16 0 9 5 12 12
8 7 -5 9 -2 6 7 -5 12 3 15 36 15 35 -1 41 2 44 22 3 19 -1 22 -28 22 -18 0
-33 -6 -36 -15z"/>
<path d="M1723 2545 c0 -33 2 -45 4 -27 2 18 2 45 0 60 -2 15 -4 0 -4 -33z"/>
<path d="M2072 2568 c-2 -38 -2 -38 38 -38 33 0 40 -3 40 -20 0 -16 7 -20 35
-20 l34 0 4 -57 3 -58 2 58 c1 41 6 57 16 57 9 0 12 7 9 20 -3 11 -14 20 -24
20 -12 0 -21 10 -25 25 -6 22 -11 25 -55 25 -42 0 -49 -3 -49 -20 0 -33 -18
-23 -23 13 -4 31 -4 31 -5 -5z"/>
<path d="M741 2563 c-5 -10 -12 -17 -15 -16 -5 2 -10 1 -41 -9 -6 -2 -8 -15
-4 -33 l7 -30 1 28 c1 30 10 34 30 15 11 -11 13 -10 9 2 -5 13 5 15 61 14 36
-2 56 0 44 2 -14 3 -23 13 -23 25 0 25 -55 27 -69 2z"/>
<path d="M600 2445 c0 -20 -5 -25 -25 -25 -18 0 -25 -5 -25 -20 0 -16 7 -20
30 -20 23 0 30 4 30 20 0 13 7 20 20 20 20 0 44 32 33 44 -3 3 -19 6 -35 6
-23 0 -28 -4 -28 -25z"/>
<path d="M2250 2445 c0 -20 5 -25 25 -25 18 0 25 -5 25 -20 0 -16 7 -20 31
-20 28 0 31 3 25 23 -3 12 -6 32 -6 45 0 20 -5 22 -50 22 -47 0 -50 -2 -50
-25z"/>
<path d="M1331 2348 c0 -21 -6 -38 -12 -38 -5 0 -7 5 -4 10 3 6 -1 10 -10 10
-9 0 -13 -4 -10 -10 3 -5 -6 -15 -20 -22 -22 -10 -23 -13 -10 -20 17 -10 38
-1 30 13 -4 5 3 9 15 9 24 0 33 18 27 57 -3 23 -4 22 -6 -9z"/>
<path d="M1469 2353 c-1 -17 -3 -21 -6 -10 -7 25 -59 23 -66 -3 -6 -25 -24
-26 -30 -2 -4 16 -5 16 -6 -1 0 -10 5 -20 13 -23 9 -3 12 -13 9 -22 -4 -13 -3
-13 9 2 12 15 22 17 51 12 l37 -7 0 41 c0 45 -9 56 -11 13z"/>
<path d="M1581 2358 c0 -14 -4 -33 -7 -42 -4 -11 0 -16 12 -16 16 0 17 2 4 10
-8 5 -11 10 -6 10 5 0 17 -6 25 -14 14 -13 16 -11 16 14 0 18 -3 26 -9 20 -16
-16 -24 -11 -29 18 l-4 27 -2 -27z"/>
<path d="M2379 2348 c-4 -27 -1 -38 8 -38 7 0 13 -9 13 -20 0 -16 7 -20 31
-20 24 0 30 3 25 16 -3 9 -6 29 -6 45 0 24 -4 29 -25 29 -19 0 -25 -6 -26 -22
-1 -15 -4 -10 -8 12 l-7 35 -5 -37z"/>
<path d="M494 2345 c-4 -8 -10 -12 -15 -9 -15 9 -23 -26 -9 -39 10 -9 12 -9 8
4 -5 12 2 15 36 15 35 -1 41 2 44 22 3 19 -1 22 -28 22 -18 0 -33 -6 -36 -15z"/>
<path d="M1251 2328 c2 -31 2 -31 6 -5 3 16 9 25 15 21 7 -4 8 -2 4 4 -14 22
-26 12 -25 -20z"/>
<path d="M1655 2319 c0 -23 4 -29 20 -28 11 0 14 3 8 6 -7 2 -13 13 -13 23 0
10 -3 21 -7 23 -5 3 -8 -8 -8 -24z"/>
<path d="M1223 2305 c0 -22 2 -30 4 -17 2 12 2 30 0 40 -3 9 -5 -1 -4 -23z"/>
<path d="M1531 2333 c-1 -6 -4 -20 -7 -30 -5 -17 -5 -17 6 0 6 10 9 23 6 30
-3 9 -5 9 -5 0z"/>
<path d="M1681 2324 c0 -11 3 -14 6 -6 3 7 2 16 -1 19 -3 4 -6 -2 -5 -13z"/>
<path d="M1156 2312 c7 -4 14 -16 17 -27 4 -15 5 -14 6 8 1 20 -4 27 -16 27
-12 0 -14 -3 -7 -8z"/>
<path d="M1750 2290 c0 -11 4 -20 10 -20 5 0 11 -26 13 -57 l3 -58 2 58 c2 47
5 57 20 57 11 0 18 7 18 20 0 16 -7 20 -33 20 -26 0 -33 -4 -33 -20z"/>
<path d="M1835 2268 c-14 -46 -11 -67 9 -72 47 -13 66 -7 66 20 0 16 4 23 12
18 7 -4 8 -3 4 4 -10 17 -24 15 -30 -5 -3 -10 -4 -4 -2 14 1 18 -1 30 -6 27
-13 -8 -9 -62 5 -67 6 -3 2 -6 -11 -6 -15 -1 -21 3 -16 11 5 8 2 9 -10 5 -16
-6 -18 -2 -14 28 4 35 1 46 -7 23z"/>
<path d="M1723 2215 c0 -33 2 -45 4 -27 2 18 2 45 0 60 -2 15 -4 0 -4 -33z"/>
<path d="M2479 2238 c-3 -27 -1 -38 8 -38 7 0 13 -9 13 -20 0 -12 7 -20 16
-20 13 0 15 -8 12 -35 -3 -24 0 -35 9 -35 7 0 13 -9 13 -20 0 -15 7 -20 25
-20 23 0 25 4 25 45 0 41 -2 45 -24 45 -15 0 -26 -7 -29 -17 -3 -10 -3 3 -1
28 4 45 3 47 -25 52 -25 5 -30 12 -33 39 l-3 33 -6 -37z"/>
<path d="M400 2225 c0 -20 -5 -25 -25 -25 -18 0 -25 -5 -25 -20 0 -16 7 -20
30 -20 23 0 30 5 30 19 0 13 8 21 23 23 14 2 23 11 25 26 3 19 -1 22 -27 22
-26 0 -31 -4 -31 -25z"/>
<path d="M1066 2232 c-3 -5 1 -9 9 -9 8 0 12 4 9 9 -3 4 -7 8 -9 8 -2 0 -6 -4
-9 -8z"/>
<path d="M1950 2220 c-9 -6 -10 -10 -3 -10 6 0 15 5 18 10 8 12 4 12 -15 0z"/>
<path d="M1920 2185 c-21 -11 -21 -13 -4 -19 11 -4 24 0 36 12 15 15 16 19 4
19 -8 0 -24 -6 -36 -12z m25 -5 c-3 -5 -12 -10 -18 -10 -7 0 -6 4 3 10 19 12
23 12 15 0z"/>
<path d="M1985 2158 c-14 -49 -11 -67 12 -73 33 -8 40 -1 45 44 2 22 0 37 -4
35 -5 -3 -8 -21 -8 -40 0 -19 -5 -34 -11 -34 -5 0 -7 5 -3 12 5 8 2 9 -10 5
-16 -6 -18 -2 -14 28 4 35 1 46 -7 23z"/>
<path d="M300 2095 c0 -43 1 -45 30 -45 23 0 30 5 30 19 0 12 8 21 23 24 l22
4 -22 2 c-16 1 -23 7 -23 21 0 16 -7 20 -30 20 -29 0 -30 -2 -30 -45z"/>
<path d="M2051 2108 c2 -31 2 -31 6 -5 3 16 9 25 15 21 7 -4 8 -2 4 4 -14 22
-26 12 -25 -20z"/>
<path d="M854 2102 c10 -12 16 -28 13 -37 -4 -8 -3 -15 2 -15 14 0 19 35 7 46
-24 22 -41 27 -22 6z"/>
<path d="M2100 2110 c-9 -6 -10 -10 -3 -10 6 0 15 5 18 10 8 12 4 12 -15 0z"/>
<path d="M815 2101 c-6 -11 13 -26 22 -17 4 3 1 6 -6 6 -7 0 -9 5 -6 10 3 6 4
10 1 10 -3 0 -7 -4 -11 -9z"/>
<path d="M2070 2075 c-21 -11 -21 -13 -4 -19 11 -4 24 0 36 12 15 15 16 19 4
19 -8 0 -24 -6 -36 -12z m25 -5 c-3 -5 -12 -10 -18 -10 -7 0 -6 4 3 10 19 12
23 12 15 0z"/>
<path d="M2137 2053 c-15 -14 -5 -59 16 -74 21 -16 22 -15 22 12 0 18 -3 25
-9 19 -18 -18 -28 -10 -24 20 5 32 5 33 -5 23z"/>
<path d="M250 1985 c0 -43 1 -45 30 -45 29 0 30 2 30 45 0 43 -1 45 -30 45
-29 0 -30 -2 -30 -45z"/>
<path d="M2203 1997 c1 -20 5 -33 9 -31 11 7 10 35 -1 53 -6 9 -8 2 -8 -22z"/>
<path d="M2599 2023 c0 -5 -2 -25 -3 -45 -1 -35 0 -38 26 -38 26 0 28 2 28 45
0 41 -2 45 -25 45 -14 0 -25 -3 -26 -7z"/>
<path d="M2097 1999 c7 -7 15 -10 18 -7 3 3 -2 9 -12 12 -14 6 -15 5 -6 -5z"/>
<path d="M2098 1973 c7 -3 16 -2 19 1 4 3 -2 6 -13 5 -11 0 -14 -3 -6 -6z"/>
<path d="M2130 1955 c0 -14 2 -25 4 -25 2 0 6 11 8 25 3 14 1 25 -3 25 -5 0
-9 -11 -9 -25z"/>
<path d="M2183 1880 c0 -36 2 -50 4 -32 2 17 2 47 0 65 -2 17 -4 3 -4 -33z"/>
<path d="M200 1876 c0 -44 1 -46 30 -46 28 0 30 3 30 35 0 19 1 38 3 43 1 4
-13 8 -30 10 -33 3 -33 3 -33 -42z"/>
<path d="M701 1888 c2 -31 2 -31 6 -5 3 16 9 25 15 21 7 -4 8 -2 4 4 -14 22
-26 12 -25 -20z"/>
<path d="M2649 1913 c-7 -59 -3 -83 13 -83 16 0 18 -10 18 -84 0 -58 4 -86 13
-89 10 -4 10 -6 0 -6 -9 -1 -13 -18 -13 -50 0 -30 5 -51 13 -54 10 -4 10 -6 0
-6 -9 -1 -13 -18 -13 -50 0 -30 5 -51 13 -54 10 -4 10 -6 0 -6 -9 -1 -13 -18
-13 -50 0 -30 5 -51 13 -54 10 -4 10 -6 0 -6 -10 -1 -12 -24 -11 -83 l2 -83 6
80 c3 44 7 72 8 63 1 -12 11 -18 27 -18 23 0 25 4 25 45 0 41 -2 45 -24 45
-15 0 -26 -7 -29 -17 -3 -10 -5 2 -5 27 0 25 2 37 5 28 3 -11 14 -18 29 -18
22 0 24 4 24 45 0 41 -2 45 -24 45 -15 0 -26 -7 -29 -17 -3 -10 -5 2 -5 27 0
25 2 37 5 28 3 -11 14 -18 29 -18 22 0 24 4 24 45 0 41 -2 45 -24 45 -15 0
-26 -7 -29 -17 -3 -10 -5 2 -5 27 0 25 2 37 5 28 3 -11 14 -18 29 -18 22 0 24
4 24 45 0 41 -2 45 -24 45 -15 0 -27 -7 -30 -17 -3 -10 -3 39 -1 110 l5 127
-25 0 c-14 0 -25 -3 -26 -7z"/>
<path d="M2216 1896 c3 -8 13 -17 22 -21 13 -5 13 -2 -3 15 -21 24 -26 25 -19
6z"/>
<path d="M665 1870 c4 -6 11 -8 16 -5 14 9 11 15 -7 15 -8 0 -12 -5 -9 -10z"/>
<path d="M720 1855 c-23 -13 -21 -16 12 -19 6 -1 12 7 14 17 1 9 2 17 1 17 -1
-1 -13 -7 -27 -15z"/>
<path d="M2284 1826 c-3 -7 -4 -38 -2 -67 l3 -54 5 68 c5 67 4 79 -6 53z"/>
<path d="M2337 1833 c-13 -13 -7 -63 7 -63 8 0 18 4 21 10 4 6 -1 7 -11 3 -14
-5 -16 -1 -12 25 5 34 5 35 -5 25z"/>
<path d="M630 1801 c0 -20 -6 -31 -17 -34 -14 -4 -12 -5 5 -6 19 -1 22 4 22
34 0 19 -2 35 -5 35 -3 0 -5 -13 -5 -29z"/>
<path d="M680 1800 c0 -16 4 -30 8 -30 5 0 7 14 4 30 -2 17 -6 30 -8 30 -2 0
-4 -13 -4 -30z"/>
<path d="M2231 1803 c0 -17 5 -34 12 -36 10 -4 10 -6 0 -6 -8 -1 -12 -13 -12
-28 2 -25 2 -25 6 -5 3 13 11 26 19 29 13 5 13 7 0 17 -8 6 -17 22 -19 36 -4
21 -4 20 -6 -7z"/>
<path d="M180 1765 c0 -41 2 -45 25 -45 23 0 25 4 25 45 0 41 -2 45 -25 45
-23 0 -25 -4 -25 -45z"/>
<path d="M1300 1785 c0 -20 -5 -25 -25 -25 -18 0 -25 -5 -25 -20 0 -18 7 -20
55 -20 48 0 55 2 55 20 0 19 7 20 95 20 88 0 95 -1 95 -20 0 -18 7 -20 58 -20
51 0 58 2 58 20 0 15 -7 20 -28 20 -23 0 -28 4 -28 25 l0 25 -155 0 -155 0 0
-25z"/>
<path d="M2549 1803 c0 -5 -2 -18 -3 -30 -2 -13 1 -23 6 -23 4 0 8 12 8 26 0
16 4 23 12 18 7 -4 8 -3 4 4 -8 13 -26 16 -27 5z"/>
<path d="M2595 1785 c2 -20 -5 -29 -26 -41 -16 -8 -29 -16 -29 -17 0 -2 17 -3
37 -2 38 0 38 0 35 39 -3 28 -1 36 9 31 8 -5 10 -4 5 3 -14 22 -34 13 -31 -13z
m0 -45 c-3 -5 -12 -10 -18 -10 -7 0 -6 4 3 10 19 12 23 12 15 0z"/>
<path d="M2700 1765 c0 -33 4 -45 15 -45 11 0 15 12 15 45 0 33 -4 45 -15 45
-11 0 -15 -12 -15 -45z"/>
<path d="M663 1753 c9 -2 23 -2 30 0 6 3 -1 5 -18 5 -16 0 -22 -2 -12 -5z"/>
<path d="M2330 1735 c0 -14 2 -25 4 -25 2 0 6 11 8 25 3 14 1 25 -3 25 -5 0
-9 -11 -9 -25z"/>
<path d="M2631 1751 c-11 -7 -11 -9 0 -14 8 -3 9 -6 4 -6 -7 -1 -9 -16 -7 -36
3 -28 8 -35 26 -34 18 1 18 2 3 6 -16 4 -18 12 -14 49 2 24 4 44 3 44 -1 0 -7
-4 -15 -9z"/>
<path d="M1685 1718 c-12 -40 -11 -68 1 -68 8 0 14 -9 14 -20 0 -12 7 -20 16
-20 13 0 15 -8 12 -35 -3 -24 0 -35 9 -35 7 0 13 -9 13 -20 0 -11 7 -20 15
-20 11 0 15 12 15 45 0 32 -4 45 -14 45 -8 0 -17 -10 -19 -22 -3 -17 -5 -14
-6 10 0 20 4 32 12 32 11 0 14 33 8 83 -1 4 -14 7 -30 7 -23 0 -31 -5 -35 -22
-2 -13 -4 -6 -2 15 2 37 -1 48 -9 25z"/>
<path d="M631 1693 c-1 -21 -7 -33 -18 -36 -16 -4 -16 -5 -1 -6 10 -1 18 -11
20 -28 l3 -28 5 30 c3 17 2 46 -1 65 l-6 35 -2 -32z"/>
<path d="M150 1655 c0 -43 1 -45 30 -45 29 0 30 2 30 45 0 43 -1 45 -30 45
-29 0 -30 -2 -30 -45z"/>
<path d="M1200 1675 c0 -20 -5 -25 -25 -25 -18 0 -25 -5 -25 -20 0 -16 7 -20
30 -20 23 0 30 5 30 19 0 13 8 21 23 23 14 2 23 11 25 26 3 19 -1 22 -27 22
-26 0 -31 -4 -31 -25z"/>
<path d="M2249 1693 c0 -5 -2 -18 -3 -30 -2 -13 1 -23 6 -23 4 0 8 12 8 26 0
16 4 23 12 18 7 -4 8 -3 4 4 -8 13 -26 16 -27 5z"/>
<path d="M2449 1693 c0 -5 -2 -18 -3 -30 -2 -13 1 -23 6 -23 4 0 8 12 8 26 0
16 4 23 12 18 7 -4 8 -3 4 4 -8 13 -26 16 -27 5z"/>
<path d="M2495 1675 c2 -20 -5 -29 -26 -41 -33 -17 -36 -22 -11 -20 12 1 18
-8 20 -31 3 -27 7 -33 25 -32 17 1 18 2 5 6 -12 3 -18 14 -18 33 0 16 -5 30
-12 32 -8 3 -6 7 5 11 9 3 16 3 14 -1 -1 -4 2 -9 8 -12 6 -3 9 10 7 34 -3 28
-1 36 9 31 8 -5 10 -4 5 3 -14 22 -34 13 -31 -13z"/>
<path d="M2545 1675 c1 -15 -4 -30 -14 -36 -14 -9 -14 -10 1 -5 10 3 17 2 15
-2 -1 -4 2 -9 8 -12 6 -3 9 10 7 34 -3 28 -1 36 9 31 8 -5 10 -4 5 3 -13 22
-34 13 -31 -13z"/>
<path d="M573 1645 c0 -22 2 -30 4 -17 2 12 2 30 0 40 -3 9 -5 -1 -4 -23z"/>
<path d="M2280 1644 c-44 -32 -45 -32 -23 -30 16 1 18 -9 21 -86 3 -84 4 -88
25 -87 18 1 19 2 4 6 -17 4 -18 15 -15 100 2 78 6 98 20 107 14 8 24 7 40 -3
21 -13 22 -13 9 2 -18 23 -39 20 -81 -9z"/>
<path d="M2595 1660 c3 -6 -1 -13 -10 -16 -13 -6 -14 -8 -3 -15 7 -5 8 -9 3
-9 -7 0 -9 -15 -7 -35 3 -28 8 -35 26 -34 17 1 18 2 3 6 -14 4 -17 13 -15 44
1 21 7 39 13 39 7 0 12 7 12 15 0 8 -7 15 -14 15 -8 0 -11 -5 -8 -10z"/>
<path d="M2630 1600 c0 -46 2 -50 23 -49 16 1 18 2 5 6 -13 3 -18 15 -18 43 0
28 5 40 18 43 13 4 11 5 -5 6 -21 1 -23 -3 -23 -49z"/>
<path d="M2318 1633 c6 -2 18 -2 25 0 6 3 1 5 -13 5 -14 0 -19 -2 -12 -5z"/>
<path d="M2387 1613 c-12 -11 -8 -61 6 -66 10 -4 10 -6 0 -6 -9 -1 -13 -18
-13 -51 0 -46 2 -50 23 -49 16 1 18 2 5 6 -13 3 -18 15 -18 44 0 21 5 39 10
39 6 0 10 12 10 26 0 16 4 23 12 18 7 -4 8 -3 4 4 -10 17 -24 15 -30 -5 -3
-10 -4 -3 -2 15 3 35 3 35 -7 25z"/>
<path d="M2528 1585 c3 -28 8 -35 26 -34 16 1 17 2 4 6 -12 3 -18 14 -18 34 0
16 -4 29 -8 29 -4 0 -6 -16 -4 -35z"/>
<path d="M2332 1583 c-1 -21 -8 -33 -19 -36 -17 -4 -17 -5 -1 -6 14 -1 18 -14
21 -83 l3 -83 2 82 c2 64 5 81 15 77 8 -3 14 2 14 11 0 9 -6 14 -13 11 -8 -3
-14 6 -17 27 l-4 32 -1 -32z"/>
<path d="M150 1545 c0 -43 1 -45 30 -45 29 0 30 2 30 45 0 43 -1 45 -30 45
-29 0 -30 -2 -30 -45z"/>
<path d="M551 1558 c2 -31 2 -31 6 -5 3 16 9 25 15 21 7 -4 8 -2 4 4 -14 22
-26 12 -25 -20z"/>
<path d="M595 1564 c2 -19 -4 -28 -21 -36 -21 -10 -22 -12 -7 -23 11 -8 14
-22 11 -43 -3 -20 0 -32 7 -32 13 0 7 72 -7 81 -5 3 -3 9 6 12 9 4 15 3 13 -1
-1 -4 2 -9 8 -12 6 -3 9 10 7 34 -3 28 -1 36 9 31 8 -5 10 -4 5 3 -14 22 -34
13 -31 -14z"/>
<path d="M1131 1483 c1 -60 4 -96 6 -81 3 21 12 30 36 38 l32 10 -32 -5 c-31
-4 -33 -3 -33 25 0 23 4 30 20 30 17 0 20 7 20 45 0 41 -2 45 -25 45 l-25 0 1
-107z"/>
<path d="M2445 1550 c3 -5 -6 -15 -20 -22 -21 -10 -23 -13 -10 -20 8 -5 15
-22 15 -38 0 -25 4 -30 23 -29 17 1 18 2 4 6 -14 4 -17 13 -15 44 1 21 7 39
13 39 7 0 12 7 12 15 0 8 -7 15 -14 15 -8 0 -11 -4 -8 -10z"/>
<path d="M630 1530 c-13 -9 -13 -10 0 -10 13 0 13 -2 1 -9 -11 -7 -13 -27 -8
-94 5 -75 4 -86 -11 -90 -16 -4 -16 -5 0 -6 10 -1 18 -12 21 -28 l4 -28 2 29
c1 22 5 27 19 22 16 -6 16 -5 0 7 -20 16 -36 142 -23 174 8 18 15 43 12 43 -1
0 -9 -5 -17 -10z"/>
<path d="M2480 1490 c0 -46 2 -50 23 -49 16 1 18 2 5 6 -13 3 -18 15 -18 43 0
28 5 40 18 43 13 4 11 5 -5 6 -21 1 -23 -3 -23 -49z"/>
<path d="M2530 1490 c0 -46 2 -50 23 -49 16 1 18 2 5 6 -13 3 -18 15 -18 43 0
28 5 40 18 43 13 4 11 5 -5 6 -21 1 -23 -3 -23 -49z"/>
<path d="M2580 1490 c0 -46 2 -50 23 -49 16 1 18 2 5 6 -13 3 -18 15 -18 43 0
28 5 40 18 43 13 4 11 5 -5 6 -21 1 -23 -3 -23 -49z"/>
<path d="M2630 1490 c0 -46 2 -50 23 -49 16 1 18 2 5 6 -13 3 -18 15 -18 43 0
28 5 40 18 43 13 4 11 5 -5 6 -21 1 -23 -3 -23 -49z"/>
<path d="M523 1445 c0 -33 2 -45 4 -27 2 18 2 45 0 60 -2 15 -4 0 -4 -33z"/>
<path d="M150 1435 c0 -43 1 -45 30 -45 29 0 30 2 30 45 0 43 -1 45 -30 45
-29 0 -30 -2 -30 -45z"/>
<path d="M1750 1435 c0 -33 4 -45 15 -45 11 0 15 12 15 45 0 33 -4 45 -15 45
-11 0 -15 -12 -15 -45z"/>
<path d="M2199 1473 c0 -5 -2 -18 -3 -30 -2 -13 1 -23 6 -23 4 0 8 12 8 26 0
16 4 23 12 18 7 -4 8 -3 4 4 -8 13 -26 16 -27 5z"/>
<path d="M2218 1414 c-35 -18 -35 -20 -1 -19 17 0 27 6 29 18 1 9 2 17 1 17
-1 -1 -14 -8 -29 -16z"/>
<path d="M2280 1381 c0 -30 5 -51 13 -54 10 -4 10 -6 0 -6 -10 -1 -12 -23 -11
-83 l2 -83 3 78 c2 42 8 77 13 77 6 0 10 12 10 26 0 16 4 23 12 18 7 -4 8 -3
4 4 -10 17 -24 15 -29 -5 -3 -10 -5 1 -6 24 -1 32 3 43 17 46 13 4 11 5 -5 6
-21 1 -23 -4 -23 -48z"/>
<path d="M2380 1380 c0 -46 2 -50 23 -49 16 1 18 2 5 6 -13 3 -18 15 -18 43 0
28 5 40 18 43 13 4 11 5 -5 6 -21 1 -23 -3 -23 -49z"/>
<path d="M2430 1380 c0 -46 2 -50 23 -49 16 1 18 2 5 6 -13 3 -18 15 -18 43 0
28 5 40 18 43 13 4 11 5 -5 6 -21 1 -23 -3 -23 -49z"/>
<path d="M2480 1380 c0 -46 2 -50 23 -49 16 1 18 2 5 6 -13 3 -18 15 -18 43 0
28 5 40 18 43 13 4 11 5 -5 6 -21 1 -23 -3 -23 -49z"/>
<path d="M2530 1380 c0 -46 2 -50 23 -49 16 1 18 2 5 6 -13 3 -18 15 -18 43 0
28 5 40 18 43 13 4 11 5 -5 6 -21 1 -23 -3 -23 -49z"/>
<path d="M2580 1380 c0 -46 2 -50 23 -49 16 1 18 2 5 6 -13 3 -18 15 -18 43 0
28 5 40 18 43 13 4 11 5 -5 6 -21 1 -23 -3 -23 -49z"/>
<path d="M2630 1380 c0 -46 2 -50 23 -49 16 1 18 2 5 6 -13 3 -18 15 -18 43 0
28 5 40 18 43 13 4 11 5 -5 6 -21 1 -23 -3 -23 -49z"/>
<path d="M373 1335 c0 -33 2 -45 4 -27 2 18 2 45 0 60 -2 15 -4 0 -4 -33z"/>
<path d="M473 1335 c0 -33 2 -45 4 -27 2 18 2 45 0 60 -2 15 -4 0 -4 -33z"/>
<path d="M150 1325 c0 -43 1 -45 30 -45 29 0 30 2 30 45 0 43 -1 45 -30 45
-29 0 -30 -2 -30 -45z"/>
<path d="M1150 1325 c0 -43 1 -45 30 -45 29 0 30 2 30 45 0 43 -1 45 -30 45
-29 0 -30 -2 -30 -45z"/>
<path d="M1700 1325 c0 -44 1 -45 33 -45 31 0 33 1 31 38 -1 20 -3 40 -3 45
-1 4 -14 7 -31 7 -29 0 -30 -2 -30 -45z"/>
<path d="M2099 1363 c0 -5 -2 -18 -3 -30 -2 -13 1 -23 6 -23 4 0 8 12 8 26 0
16 4 23 12 18 7 -4 8 -3 4 4 -8 13 -26 16 -27 5z"/>
<path d="M2145 1345 c2 -20 -5 -29 -26 -41 -16 -8 -29 -16 -29 -17 0 -2 17 -3
37 -2 38 0 38 0 35 39 -3 28 -1 36 9 31 8 -5 10 -4 5 3 -14 22 -34 13 -31 -13z
m0 -45 c-3 -5 -12 -10 -18 -10 -7 0 -6 4 3 10 19 12 23 12 15 0z"/>
<path d="M2195 1345 c1 -15 -4 -30 -14 -36 -14 -9 -14 -10 1 -5 10 3 17 2 15
-2 -1 -4 2 -9 8 -12 6 -3 9 10 7 34 -3 28 -1 36 9 31 8 -5 10 -4 5 3 -13 22
-34 13 -31 -13z"/>
<path d="M2245 1330 c3 -6 -1 -13 -10 -16 -13 -6 -14 -8 -3 -15 7 -5 8 -9 3
-9 -7 0 -9 -15 -7 -35 3 -28 8 -35 26 -34 17 1 18 2 3 6 -14 4 -17 13 -15 44
1 21 7 39 13 39 7 0 12 7 12 15 0 8 -7 15 -14 15 -8 0 -11 -5 -8 -10z"/>
<path d="M2345 1330 c3 -5 -6 -15 -20 -22 -21 -10 -23 -13 -10 -20 8 -5 15
-22 15 -38 0 -25 4 -30 23 -29 17 1 18 2 4 6 -14 4 -17 13 -15 44 1 21 7 39
13 39 7 0 12 7 12 15 0 8 -7 15 -14 15 -8 0 -11 -4 -8 -10z"/>
<path d="M1095 1320 c-3 -5 0 -7 9 -4 9 4 16 -2 19 -18 4 -21 4 -20 6 5 1 27
-21 38 -34 17z"/>
<path d="M2380 1270 c0 -46 2 -50 23 -49 16 1 18 2 5 6 -13 3 -18 15 -18 43 0
28 5 40 18 43 13 4 11 5 -5 6 -21 1 -23 -3 -23 -49z"/>
<path d="M2430 1270 c0 -46 2 -50 23 -49 16 1 18 2 5 6 -13 3 -18 15 -18 43 0
28 5 40 18 43 13 4 11 5 -5 6 -21 1 -23 -3 -23 -49z"/>
<path d="M2480 1270 c0 -46 2 -50 23 -49 16 1 18 2 5 6 -13 3 -18 15 -18 43 0
28 5 40 18 43 13 4 11 5 -5 6 -21 1 -23 -3 -23 -49z"/>
<path d="M2530 1270 c0 -46 2 -50 23 -49 16 1 18 2 5 6 -13 3 -18 15 -18 43 0
28 5 40 18 43 13 4 11 5 -5 6 -21 1 -23 -3 -23 -49z"/>
<path d="M2580 1270 c0 -46 2 -50 23 -49 16 1 18 2 5 6 -13 3 -18 15 -18 43 0
28 5 40 18 43 13 4 11 5 -5 6 -21 1 -23 -3 -23 -49z"/>
<path d="M2630 1270 c0 -27 3 -50 8 -50 4 0 6 20 4 44 -3 36 -1 45 15 49 15 4
14 5 -4 6 -21 1 -23 -3 -23 -49z"/>
<path d="M2178 1255 c2 -19 7 -35 11 -35 4 0 5 16 3 35 -2 19 -7 35 -11 35 -4
0 -5 -16 -3 -35z"/>
<path d="M323 1225 c0 -33 2 -45 4 -27 2 18 2 45 0 60 -2 15 -4 0 -4 -33z"/>
<path d="M573 1225 c0 -33 2 -45 4 -27 2 18 2 45 0 60 -2 15 -4 0 -4 -33z"/>
<path d="M1229 1248 c-4 -27 -1 -38 8 -38 7 0 13 -9 13 -20 0 -18 7 -20 55
-20 48 0 55 2 55 20 0 15 -7 20 -25 20 -20 0 -25 5 -25 25 0 21 -5 25 -30 25
-24 0 -30 -4 -31 -22 -1 -15 -4 -10 -8 12 l-7 35 -5 -37z"/>
<path d="M180 1215 c0 -41 2 -45 25 -45 23 0 25 4 25 45 0 41 -2 45 -25 45
-23 0 -25 -4 -25 -45z"/>
<path d="M607 1253 c-13 -12 -8 -83 6 -80 8 1 12 -11 12 -35 0 -31 4 -38 24
-43 32 -8 43 6 38 46 l-4 34 -1 -37 c-1 -21 -7 -38 -13 -38 -5 0 -7 5 -3 12 5
8 2 9 -9 5 -14 -5 -17 0 -17 29 0 19 4 33 9 29 5 -3 11 7 13 22 4 34 25 42 31
11 l4 -23 2 23 c1 16 -6 26 -19 29 -11 3 -20 9 -20 14 0 10 -43 12 -53 2z"/>
<path d="M1644 1245 c-4 -8 -10 -12 -15 -9 -5 3 -12 -2 -15 -10 -4 -10 -18
-16 -35 -16 -22 0 -29 -5 -29 -20 0 -16 7 -20 30 -20 21 0 30 5 30 16 0 9 5
12 12 8 7 -5 9 -2 5 8 -4 13 1 15 31 11 20 -2 42 -6 48 -8 6 -1 9 7 8 18 -1
12 -3 25 -3 30 -2 14 -62 7 -67 -8z"/>
<path d="M1999 1253 c0 -5 -2 -18 -3 -30 -2 -13 1 -23 6 -23 4 0 8 12 8 26 0
16 4 23 12 18 7 -4 8 -3 4 4 -8 13 -26 16 -27 5z"/>
<path d="M2045 1235 c2 -20 -5 -29 -26 -41 -33 -17 -36 -22 -11 -20 12 1 18
-8 20 -31 3 -27 7 -33 25 -32 17 1 18 2 5 6 -12 3 -18 14 -18 33 0 16 -5 30
-12 32 -8 3 -6 7 5 11 9 3 16 3 14 -1 -1 -4 2 -9 8 -12 6 -3 9 10 7 34 -3 28
-1 36 9 31 8 -5 10 -4 5 3 -14 22 -34 13 -31 -13z"/>
<path d="M2095 1235 c1 -15 -4 -30 -14 -36 -14 -9 -14 -10 1 -5 10 3 17 2 15
-2 -1 -4 2 -9 8 -12 6 -3 9 10 7 34 -3 28 -1 36 9 31 8 -5 10 -4 5 3 -13 22
-34 13 -31 -13z"/>
<path d="M2700 1214 c0 -59 24 -55 28 4 2 33 0 42 -12 42 -12 0 -16 -11 -16
-46z"/>
<path d="M2145 1220 c3 -6 -1 -13 -10 -16 -13 -6 -14 -8 -3 -15 7 -5 8 -9 3
-9 -7 0 -9 -15 -7 -35 6 -50 17 -43 15 10 -1 30 3 45 11 45 7 0 13 7 13 15 0
8 -7 15 -14 15 -8 0 -11 -5 -8 -10z"/>
<path d="M2180 1161 c0 -30 5 -51 13 -54 10 -4 10 -6 0 -6 -9 -1 -13 -18 -13
-50 0 -30 5 -51 13 -54 10 -4 10 -6 0 -6 -9 -1 -13 -18 -13 -51 0 -46 2 -50
23 -49 16 1 18 2 5 6 -13 3 -18 15 -18 44 0 21 5 39 10 39 6 0 10 12 10 26 0
16 4 23 12 18 7 -4 8 -3 4 4 -10 17 -24 15 -29 -5 -3 -10 -5 2 -5 27 0 25 2
38 6 29 4 -9 19 -15 37 -15 29 1 30 3 27 40 -3 28 -1 36 9 31 8 -5 10 -4 5 3
-11 18 -64 14 -76 -5 -8 -14 -10 -8 -8 30 2 26 0 47 -4 47 -5 0 -8 -22 -8 -49z"/>
<path d="M2231 1183 c1 -23 2 -24 6 -6 2 12 12 24 21 26 12 3 10 5 -5 6 -19 1
-23 -4 -22 -26z"/>
<path d="M2330 1160 c0 -46 2 -50 23 -49 16 1 18 2 5 6 -13 3 -18 15 -18 43 0
28 5 40 18 43 13 4 11 5 -5 6 -21 1 -23 -3 -23 -49z"/>
<path d="M2380 1160 c0 -46 2 -50 23 -49 16 1 18 2 5 6 -13 3 -18 15 -18 43 0
28 5 40 18 43 13 4 11 5 -5 6 -21 1 -23 -3 -23 -49z"/>
<path d="M2430 1160 c0 -46 2 -50 23 -49 16 1 18 2 5 6 -13 3 -18 15 -18 43 0
28 5 40 18 43 13 4 11 5 -5 6 -21 1 -23 -3 -23 -49z"/>
<path d="M2480 1160 c0 -27 3 -50 8 -50 4 0 6 20 4 44 -3 36 -1 45 15 49 15 4
14 5 -4 6 -21 1 -23 -3 -23 -49z"/>
<path d="M2530 1160 c0 -27 3 -50 8 -50 4 0 6 20 4 44 -3 36 -1 45 15 49 15 4
14 5 -4 6 -21 1 -23 -3 -23 -49z"/>
<path d="M2580 1160 c0 -27 3 -50 8 -50 4 0 6 20 4 44 -3 36 -1 45 15 49 15 4
14 5 -4 6 -21 1 -23 -3 -23 -49z"/>
<path d="M2630 1161 c0 -30 5 -51 13 -54 10 -4 10 -6 0 -6 -8 -1 -13 -13 -12
-28 l1 -28 8 25 c5 17 8 19 9 8 1 -12 9 -18 26 -18 23 0 25 4 25 45 0 41 -2
45 -24 45 -15 0 -27 -7 -30 -17 -3 -10 -4 3 -3 30 1 26 -1 47 -5 47 -5 0 -8
-22 -8 -49z"/>
<path d="M2078 1145 c3 -28 8 -35 26 -34 16 1 17 2 4 6 -12 3 -18 14 -18 34 0
16 -4 29 -8 29 -4 0 -6 -16 -4 -35z"/>
<path d="M1373 1115 c0 -33 2 -45 4 -27 2 18 2 45 0 60 -2 15 -4 0 -4 -33z"/>
<path d="M1423 1115 c0 -33 2 -45 4 -27 2 18 2 45 0 60 -2 15 -4 0 -4 -33z"/>
<path d="M1473 1115 c0 -33 2 -45 4 -27 2 18 2 45 0 60 -2 15 -4 0 -4 -33z"/>
<path d="M1523 1115 c0 -33 2 -45 4 -27 2 18 2 45 0 60 -2 15 -4 0 -4 -33z"/>
<path d="M200 1105 c0 -25 4 -45 9 -45 5 0 12 -12 14 -27 l4 -28 2 28 c0 17 7
27 16 27 11 0 15 12 15 45 0 43 -1 45 -30 45 -29 0 -30 -2 -30 -45z"/>
<path d="M1849 1143 c0 -5 -2 -18 -3 -30 -2 -13 1 -23 6 -23 4 0 8 12 8 26 0
16 4 23 12 18 7 -4 8 -3 4 4 -8 13 -26 16 -27 5z"/>
<path d="M1895 1125 c2 -20 -5 -29 -26 -41 -16 -8 -29 -16 -29 -17 0 -2 17 -3
37 -2 38 0 38 0 35 39 -3 28 -1 36 9 31 8 -5 10 -4 5 3 -14 22 -34 13 -31 -13z
m0 -45 c-3 -5 -12 -10 -18 -10 -7 0 -6 4 3 10 19 12 23 12 15 0z"/>
<path d="M1945 1125 c1 -15 -4 -30 -14 -36 -14 -9 -14 -10 1 -5 10 3 17 2 15
-2 -1 -4 2 -9 8 -12 6 -3 9 10 7 34 -3 28 -1 36 9 31 8 -5 10 -4 5 3 -13 22
-34 13 -31 -13z"/>
<path d="M723 1124 c21 -7 23 -34 2 -34 -8 0 -15 -4 -15 -10 0 -5 8 -10 19
-10 27 0 24 54 -4 57 -16 1 -16 1 -2 -3z"/>
<path d="M1995 1110 c3 -6 -1 -13 -10 -16 -13 -6 -14 -8 -3 -15 7 -5 8 -9 3
-9 -7 0 -9 -15 -7 -35 3 -28 8 -35 26 -34 17 1 18 2 3 6 -14 4 -17 13 -15 44
1 21 7 39 13 39 7 0 12 7 12 15 0 8 -7 15 -14 15 -8 0 -11 -5 -8 -10z"/>
<path d="M2295 1110 c3 -6 -1 -13 -10 -16 -13 -6 -14 -8 -3 -15 7 -5 8 -9 3
-9 -7 0 -9 -15 -7 -35 3 -28 8 -35 26 -34 17 1 18 2 3 6 -14 4 -17 13 -15 44
1 21 7 39 13 39 7 0 12 7 12 15 0 8 -7 15 -14 15 -8 0 -11 -5 -8 -10z"/>
<path d="M2030 1050 c0 -46 2 -50 23 -49 16 1 18 2 5 6 -13 3 -18 15 -18 43 0
28 5 40 18 43 13 4 11 5 -5 6 -21 1 -23 -3 -23 -49z"/>
<path d="M2080 1050 c0 -46 2 -50 23 -49 16 1 18 2 5 6 -13 3 -18 15 -18 43 0
28 5 40 18 43 13 4 11 5 -5 6 -21 1 -23 -3 -23 -49z"/>
<path d="M2130 995 c0 -58 3 -105 8 -105 4 0 7 47 7 105 0 58 -3 105 -7 105
-5 0 -8 -47 -8 -105z"/>
<path d="M2330 1050 c0 -27 3 -50 8 -50 4 0 6 20 4 44 -3 36 -1 45 15 49 15 4
14 5 -4 6 -21 1 -23 -3 -23 -49z"/>
<path d="M2380 1050 c0 -27 3 -50 8 -50 4 0 6 20 4 44 -3 36 -1 45 15 49 15 4
14 5 -4 6 -21 1 -23 -3 -23 -49z"/>
<path d="M2430 1050 c0 -27 3 -50 8 -50 4 0 6 20 4 44 -3 36 -1 45 15 49 15 4
14 5 -4 6 -21 1 -23 -3 -23 -49z"/>
<path d="M2480 1050 c0 -27 3 -50 8 -50 4 0 7 23 7 50 0 28 -3 50 -7 50 -5 0
-8 -22 -8 -50z"/>
<path d="M2530 1050 c0 -27 3 -50 8 -50 4 0 7 23 7 50 0 28 -3 50 -7 50 -5 0
-8 -22 -8 -50z"/>
<path d="M2580 1051 c0 -30 5 -51 13 -54 10 -4 10 -6 0 -6 -8 -1 -13 -13 -12
-28 l1 -28 8 25 c4 14 8 18 9 9 1 -10 9 -16 24 -15 14 1 22 7 21 19 -1 9 1 15
5 13 15 -9 51 15 51 34 0 17 -6 20 -45 20 -31 0 -47 -5 -55 -17 -8 -14 -10 -8
-8 30 2 26 0 47 -4 47 -5 0 -8 -22 -8 -49z"/>
<path d="M1928 1035 c3 -28 8 -35 26 -34 16 1 17 2 4 6 -12 3 -18 14 -18 34 0
16 -4 29 -8 29 -4 0 -6 -16 -4 -35z"/>
<path d="M730 1030 c0 -16 4 -30 8 -30 5 0 7 14 4 30 -2 17 -6 30 -8 30 -2 0
-4 -13 -4 -30z"/>
<path d="M250 1021 c0 -11 -6 -22 -12 -24 -10 -4 -10 -6 0 -6 6 -1 12 -10 12
-21 0 -12 7 -20 16 -20 13 0 15 -8 12 -35 -3 -24 0 -35 9 -35 7 0 13 -9 13
-20 0 -16 7 -20 33 -20 31 0 33 1 31 38 -1 20 -3 40 -3 45 -1 4 -14 7 -30 7
-23 0 -31 -5 -34 -22 -3 -17 -5 -14 -6 10 0 20 4 32 12 32 11 0 14 33 8 83 -1
4 -14 7 -31 7 -23 0 -30 -5 -30 -19z"/>
<path d="M1749 1033 c0 -5 -2 -18 -3 -30 -2 -13 1 -23 6 -23 4 0 8 12 8 26 0
16 4 23 12 18 7 -4 8 -3 4 4 -8 13 -26 16 -27 5z"/>
<path d="M1795 1015 c2 -20 -5 -29 -26 -41 -33 -17 -36 -22 -11 -20 12 1 18
-8 20 -31 3 -27 7 -33 25 -32 17 1 18 2 5 6 -12 3 -18 14 -18 33 0 16 -5 30
-12 32 -8 3 -6 7 5 11 9 3 16 3 14 -1 -1 -4 2 -9 8 -12 6 -3 9 10 7 34 -3 28
-1 36 9 31 8 -5 10 -4 5 3 -14 22 -34 13 -31 -13z"/>
<path d="M1845 1015 c1 -15 -4 -30 -14 -36 -14 -9 -14 -10 1 -5 10 3 17 2 15
-2 -1 -4 2 -9 8 -12 6 -3 9 10 7 34 -3 28 -1 36 9 31 8 -5 10 -4 5 3 -13 22
-34 13 -31 -13z"/>
<path d="M697 1009 c7 -7 15 -10 18 -7 3 3 -2 9 -12 12 -14 6 -15 5 -6 -5z"/>
<path d="M760 1011 c0 -6 6 -8 14 -5 9 4 16 -3 19 -18 5 -22 5 -22 4 2 -2 24
-37 44 -37 21z"/>
<path d="M1895 1000 c3 -6 -1 -13 -10 -16 -13 -6 -14 -8 -3 -15 7 -5 8 -9 3
-9 -7 0 -9 -15 -7 -35 3 -28 8 -35 26 -34 17 1 18 2 3 6 -14 4 -17 13 -15 44
1 21 7 39 13 39 7 0 12 7 12 15 0 8 -7 15 -14 15 -8 0 -11 -5 -8 -10z"/>
<path d="M2245 1000 c3 -5 -6 -15 -20 -22 -21 -10 -23 -13 -10 -20 8 -5 15
-22 15 -38 0 -17 3 -30 8 -30 4 0 6 20 5 45 -1 30 3 45 11 45 7 0 13 7 13 15
0 8 -7 15 -14 15 -8 0 -11 -4 -8 -10z"/>
<path d="M698 983 c7 -3 16 -2 19 1 4 3 -2 6 -13 5 -11 0 -14 -3 -6 -6z"/>
<path d="M731 963 c1 -22 2 -23 6 -8 3 11 10 23 17 27 7 5 5 8 -6 8 -13 0 -18
-7 -17 -27z"/>
<path d="M1930 941 c0 -30 5 -51 13 -54 10 -4 10 -6 0 -6 -9 -1 -13 -18 -13
-51 0 -46 2 -50 23 -49 16 1 18 2 5 6 -13 3 -18 15 -18 44 0 21 5 39 10 39 6
0 10 12 10 26 0 16 4 23 12 18 7 -4 8 -3 4 4 -10 17 -24 15 -29 -5 -3 -10 -5
1 -6 24 -1 32 3 43 17 46 13 4 11 5 -5 6 -21 1 -23 -4 -23 -48z"/>
<path d="M1981 963 c1 -23 2 -24 6 -6 2 12 12 24 21 26 12 3 10 5 -5 6 -19 1
-23 -4 -22 -26z"/>
<path d="M2030 940 c0 -46 2 -50 23 -49 16 1 18 2 5 6 -13 3 -18 15 -18 43 0
28 5 40 18 43 13 4 11 5 -5 6 -21 1 -23 -3 -23 -49z"/>
<path d="M2080 940 c0 -46 2 -50 23 -49 16 1 18 2 5 6 -13 3 -18 15 -18 43 0
28 5 40 18 43 13 4 11 5 -5 6 -21 1 -23 -3 -23 -49z"/>
<path d="M2280 940 c0 -27 3 -50 8 -50 4 0 6 20 4 44 -3 36 -1 45 15 49 15 4
14 5 -4 6 -21 1 -23 -3 -23 -49z"/>
<path d="M2330 940 c0 -27 3 -50 8 -50 4 0 7 23 7 50 0 28 -3 50 -7 50 -5 0
-8 -22 -8 -50z"/>
<path d="M2380 940 c0 -27 3 -50 8 -50 4 0 7 23 7 50 0 28 -3 50 -7 50 -5 0
-8 -22 -8 -50z"/>
<path d="M2430 940 c0 -46 2 -50 23 -49 18 1 19 2 4 6 -16 4 -18 13 -15 49 2
24 0 44 -4 44 -5 0 -8 -22 -8 -50z"/>
<path d="M2480 940 c0 -46 2 -50 23 -49 18 1 19 2 4 6 -16 4 -18 13 -15 49 2
24 0 44 -4 44 -5 0 -8 -22 -8 -50z"/>
<path d="M2530 941 c0 -30 5 -51 13 -54 10 -4 10 -6 0 -6 -8 -1 -13 -13 -12
-28 l1 -28 8 25 c5 17 8 19 9 8 1 -26 48 -24 56 2 3 11 15 20 26 20 14 0 19 7
19 25 0 23 -3 25 -49 25 -39 0 -51 -4 -55 -17 -3 -10 -4 3 -3 30 1 26 -1 47
-5 47 -5 0 -8 -22 -8 -49z"/>
<path d="M1828 925 c3 -28 8 -35 26 -34 16 1 17 2 4 6 -12 3 -18 14 -18 34 0
16 -4 29 -8 29 -4 0 -6 -16 -4 -35z"/>
<path d="M779 918 c-4 -29 -1 -38 13 -41 14 -4 18 1 18 20 0 16 4 22 12 17 7
-4 8 -3 4 4 -12 19 -26 14 -27 -10 -1 -15 -4 -10 -8 12 l-7 35 -5 -37z"/>
<path d="M845 904 c2 -19 -4 -28 -22 -37 -18 -8 -21 -13 -10 -18 7 -4 22 -7
32 -5 16 2 19 10 17 41 -3 28 -1 35 9 30 8 -5 10 -4 5 3 -14 22 -34 13 -31
-14z m0 -44 c-3 -5 -12 -10 -18 -10 -7 0 -6 4 3 10 19 12 23 12 15 0z"/>
<path d="M1599 923 c0 -5 -2 -18 -3 -30 -2 -13 1 -23 6 -23 4 0 8 12 8 26 0
16 4 23 12 18 7 -4 8 -3 4 4 -8 13 -26 16 -27 5z"/>
<path d="M1645 905 c2 -20 -5 -29 -26 -41 -16 -8 -29 -16 -29 -17 0 -2 17 -3
37 -2 38 0 38 0 35 39 -3 28 -1 36 9 31 8 -5 10 -4 5 3 -14 22 -34 13 -31 -13z
m0 -45 c-3 -5 -12 -10 -18 -10 -7 0 -6 4 3 10 19 12 23 12 15 0z"/>
<path d="M1695 905 c1 -15 -4 -30 -14 -36 -14 -9 -14 -10 1 -5 10 3 17 2 15
-2 -1 -4 2 -9 8 -12 6 -3 9 10 7 34 -3 28 -1 36 9 31 8 -5 10 -4 5 3 -13 22
-34 13 -31 -13z"/>
<path d="M900 900 c-9 -6 -10 -10 -3 -10 6 0 15 5 18 10 8 12 4 12 -15 0z"/>
<path d="M1745 890 c3 -6 -1 -13 -10 -16 -13 -6 -14 -8 -3 -15 7 -5 8 -9 3 -9
-7 0 -9 -15 -7 -35 3 -28 8 -35 26 -34 17 1 18 2 3 6 -14 4 -17 13 -15 44 1
21 7 39 13 39 7 0 12 7 12 15 0 8 -7 15 -14 15 -8 0 -11 -5 -8 -10z"/>
<path d="M1995 890 c3 -5 -6 -15 -20 -22 -21 -10 -23 -13 -10 -20 8 -5 15 -22
15 -38 0 -15 6 -31 13 -33 10 -4 10 -6 0 -6 -14 -1 -19 -101 -5 -101 4 0 6 20
4 45 -3 28 0 45 7 45 6 0 11 12 11 26 0 16 4 23 12 18 7 -4 8 -3 4 4 -10 17
-24 15 -29 -5 -3 -10 -5 1 -4 25 0 24 6 42 12 42 7 0 12 7 12 15 0 8 -7 15
-14 15 -8 0 -11 -4 -8 -10z"/>
<path d="M878 868 c-10 -6 -10 -8 2 -8 9 0 11 -3 5 -8 -5 -4 -10 -26 -11 -49
l-1 -43 44 0 c39 0 43 2 43 26 0 16 4 23 12 18 7 -4 8 -3 4 4 -10 17 -24 15
-30 -5 -3 -10 -4 -4 -2 14 1 18 -1 30 -6 27 -13 -8 -9 -62 5 -67 6 -3 -6 -5
-28 -5 -34 0 -36 1 -15 8 17 5 19 8 8 9 -23 1 -24 47 -3 71 13 14 13 17 0 17
-8 0 -20 -4 -27 -9z"/>
<path d="M1780 831 c0 -30 5 -51 13 -54 10 -4 10 -6 0 -6 -9 -1 -13 -18 -13
-51 0 -46 2 -50 23 -49 16 1 18 2 5 6 -13 3 -18 15 -18 44 0 21 5 39 10 39 6
0 10 12 10 26 0 16 4 23 12 18 7 -4 8 -3 4 4 -10 17 -24 15 -29 -5 -3 -10 -5
1 -6 24 -1 32 3 43 17 46 13 4 11 5 -5 6 -21 1 -23 -4 -23 -48z"/>
<path d="M1831 853 c1 -23 2 -24 6 -6 2 12 12 24 21 26 12 3 10 5 -5 6 -19 1
-23 -4 -22 -26z"/>
<path d="M1882 798 l2 -83 3 77 c3 62 7 78 21 81 12 3 11 5 -5 6 -22 1 -23 -2
-21 -81z"/>
<path d="M2031 853 c1 -23 2 -24 6 -6 2 12 12 24 21 26 12 3 10 5 -5 6 -19 1
-23 -4 -22 -26z"/>
<path d="M2080 830 c0 -46 2 -50 23 -49 16 1 18 2 5 6 -13 3 -18 15 -18 43 0
28 5 40 18 43 13 4 11 5 -5 6 -21 1 -23 -3 -23 -49z"/>
<path d="M2130 830 c0 -46 2 -50 23 -49 18 1 19 2 4 6 -16 4 -18 13 -15 49 2
24 0 44 -4 44 -5 0 -8 -22 -8 -50z"/>
<path d="M2180 830 c0 -27 3 -50 8 -50 4 0 6 20 4 44 -3 36 -1 45 15 49 15 4
14 5 -4 6 -21 1 -23 -3 -23 -49z"/>
<path d="M2230 830 c0 -27 3 -50 8 -50 4 0 7 23 7 50 0 28 -3 50 -7 50 -5 0
-8 -22 -8 -50z"/>
<path d="M2280 830 c0 -27 3 -50 8 -50 4 0 7 23 7 50 0 28 -3 50 -7 50 -5 0
-8 -22 -8 -50z"/>
<path d="M2330 830 c0 -46 2 -50 23 -49 18 1 19 2 4 6 -16 4 -18 13 -15 49 2
24 0 44 -4 44 -5 0 -8 -22 -8 -50z"/>
<path d="M2380 830 c0 -46 2 -50 23 -49 18 1 19 2 4 6 -16 4 -18 13 -15 49 2
24 0 44 -4 44 -5 0 -8 -22 -8 -50z"/>
<path d="M2430 830 c0 -46 2 -50 23 -49 16 1 18 2 5 6 -13 3 -18 15 -18 43 0
28 5 40 18 43 13 4 11 5 -5 6 -21 1 -23 -3 -23 -49z"/>
<path d="M2480 831 c0 -30 5 -51 13 -54 10 -4 10 -6 0 -6 -8 -1 -13 -13 -12
-28 l1 -28 8 25 c5 17 8 19 9 8 1 -12 9 -18 25 -18 18 0 25 6 28 28 3 15 7 34
9 42 3 11 -5 16 -28 18 -23 2 -32 -1 -36 -15 -3 -10 -5 1 -6 24 -1 32 3 43 17
46 13 4 11 5 -5 6 -21 1 -23 -4 -23 -48z"/>
<path d="M1678 815 c3 -28 8 -35 26 -34 16 1 17 2 4 6 -12 3 -18 14 -18 34 0
16 -4 29 -8 29 -4 0 -6 -16 -4 -35z"/>
<path d="M350 775 l0 -45 41 0 c41 0 41 0 37 -35 -3 -24 0 -35 9 -35 7 0 13
-9 13 -20 0 -16 7 -20 33 -20 31 0 33 1 31 38 -1 20 -3 40 -3 45 -1 4 -14 7
-30 7 -23 0 -31 -5 -34 -22 -3 -17 -5 -14 -6 10 0 20 4 32 12 32 7 0 13 9 13
20 0 15 -7 20 -28 20 -23 0 -28 4 -28 25 0 21 -5 25 -30 25 -29 0 -30 -2 -30
-45z"/>
<path d="M1549 813 c0 -5 -2 -18 -3 -30 -2 -13 1 -23 6 -23 4 0 8 12 8 26 0
16 4 23 12 18 7 -4 8 -3 4 4 -8 13 -26 16 -27 5z"/>
<path d="M1595 795 c2 -20 -5 -29 -26 -41 -16 -8 -29 -16 -29 -17 0 -1 24 -2
53 -2 36 0 51 4 50 13 -2 6 3 12 10 12 8 0 14 7 14 15 0 8 -7 15 -14 15 -8 0
-11 -5 -8 -10 3 -6 -1 -13 -10 -16 -14 -6 -14 -9 -3 -16 10 -8 10 -9 -2 -5 -9
2 -16 18 -18 36 -3 24 0 31 9 25 8 -4 10 -3 5 4 -14 22 -34 13 -31 -13z m0
-45 c-3 -5 -12 -10 -18 -10 -7 0 -6 4 3 10 19 12 23 12 15 0z"/>
<path d="M1015 780 c3 -5 11 -10 16 -10 6 0 7 5 4 10 -3 6 -11 10 -16 10 -6 0
-7 -4 -4 -10z"/>
<path d="M2045 780 c3 -5 -6 -15 -20 -22 -21 -10 -23 -13 -10 -20 8 -5 15 -22
15 -38 0 -17 3 -30 8 -30 4 0 6 20 5 45 -1 30 3 45 11 45 7 0 13 7 13 15 0 8
-7 15 -14 15 -8 0 -11 -4 -8 -10z"/>
<path d="M970 755 c-23 -13 -21 -16 12 -19 6 -1 12 7 14 17 1 9 2 17 1 17 -1
-1 -13 -7 -27 -15z"/>
<path d="M1680 721 c0 -30 5 -51 13 -54 10 -4 10 -6 0 -6 -14 -1 -19 -101 -5
-101 4 0 6 20 4 45 -3 28 0 45 7 45 6 0 11 12 11 26 0 16 4 23 12 18 7 -4 8
-3 4 4 -10 17 -24 15 -29 -5 -3 -10 -5 1 -6 24 -1 32 3 43 17 46 13 4 11 5 -5
6 -21 1 -23 -4 -23 -48z"/>
<path d="M1731 743 c1 -23 2 -24 6 -6 2 12 12 24 21 26 12 3 10 5 -5 6 -19 1
-23 -4 -22 -26z"/>
<path d="M1821 756 c-19 -11 -21 -14 -7 -19 10 -4 16 -18 16 -36 0 -16 6 -32
13 -34 10 -4 10 -6 0 -6 -9 -1 -13 -18 -13 -51 0 -46 2 -50 23 -49 16 1 18 2
5 6 -13 3 -18 15 -18 44 0 21 5 39 10 39 6 0 10 12 10 26 0 16 4 23 12 18 7
-4 8 -3 4 4 -10 17 -24 15 -30 -5 -3 -10 -4 3 -2 30 2 26 3 47 2 47 -1 -1 -12
-7 -25 -14z"/>
<path d="M1930 720 c0 -46 2 -50 23 -49 16 1 18 2 5 6 -13 3 -18 15 -18 43 0
28 5 40 18 43 13 4 11 5 -5 6 -21 1 -23 -3 -23 -49z"/>
<path d="M2080 720 c0 -27 3 -50 8 -50 4 0 6 20 4 44 -3 36 -1 45 15 49 15 4
14 5 -4 6 -21 1 -23 -3 -23 -49z"/>
<path d="M2130 720 c0 -27 3 -50 8 -50 4 0 6 20 4 44 -3 36 -1 45 15 49 15 4
14 5 -4 6 -21 1 -23 -3 -23 -49z"/>
<path d="M2180 720 c0 -27 3 -50 8 -50 4 0 7 23 7 50 0 28 -3 50 -7 50 -5 0
-8 -22 -8 -50z"/>
<path d="M2230 720 c0 -46 2 -50 23 -49 18 1 19 2 4 6 -16 4 -18 13 -15 49 2
24 0 44 -4 44 -5 0 -8 -22 -8 -50z"/>
<path d="M2280 720 c0 -46 2 -50 23 -49 18 1 19 2 4 6 -16 4 -18 13 -15 49 2
24 0 44 -4 44 -5 0 -8 -22 -8 -50z"/>
<path d="M2330 720 c0 -27 3 -50 8 -50 4 0 6 20 4 44 -3 36 -1 45 15 49 15 4
14 5 -4 6 -21 1 -23 -3 -23 -49z"/>
<path d="M2380 721 c0 -30 5 -51 13 -54 10 -4 10 -6 0 -6 -8 -1 -13 -13 -12
-28 l1 -28 8 25 c5 17 8 19 9 8 1 -23 51 -25 51 -3 0 9 11 20 25 25 15 6 25
17 25 30 0 17 -6 20 -49 20 -39 0 -51 -4 -54 -17 -3 -10 -5 1 -6 24 -1 32 3
43 17 46 13 4 11 5 -5 6 -21 1 -23 -4 -23 -48z"/>
<path d="M2431 743 c1 -23 2 -24 6 -6 2 12 12 24 21 26 12 3 10 5 -5 6 -19 1
-23 -4 -22 -26z"/>
<path d="M1137 733 c-4 -3 -7 -18 -7 -32 0 -20 -9 -30 -41 -45 -50 -25 -55
-32 -21 -31 17 0 27 6 27 15 0 8 10 16 22 18 17 2 22 11 25 43 2 21 3 39 2 39
0 0 -4 -3 -7 -7z"/>
<path d="M1187 733 c-12 -11 -8 -61 6 -66 10 -4 10 -6 0 -6 -8 -1 -12 -13 -12
-28 2 -24 2 -25 6 -5 2 12 9 22 14 22 5 0 9 12 9 26 0 16 4 23 12 18 7 -4 8
-3 4 4 -10 17 -24 15 -30 -5 -3 -10 -4 -3 -2 15 3 35 3 35 -7 25z"/>
<path d="M1387 733 c-12 -11 -8 -61 6 -66 10 -4 10 -6 0 -6 -8 -1 -12 -13 -12
-28 2 -24 2 -25 6 -5 2 12 9 22 14 22 5 0 9 12 9 26 0 16 4 23 12 18 7 -4 8
-3 4 4 -10 17 -24 15 -30 -5 -3 -10 -4 -3 -2 15 3 35 3 35 -7 25z"/>
<path d="M1049 703 c0 -5 -2 -18 -3 -30 -2 -13 1 -23 6 -23 4 0 8 12 8 26 0
16 4 23 12 18 7 -4 8 -3 4 4 -8 13 -26 16 -27 5z"/>
<path d="M1245 684 c2 -19 -4 -28 -22 -37 -34 -15 -11 -24 62 -23 42 1 59 5
58 14 -2 6 3 12 10 12 8 0 14 7 14 15 0 8 -7 15 -14 15 -8 0 -11 -5 -8 -10 3
-6 -1 -13 -10 -16 -14 -6 -14 -9 -3 -16 10 -8 10 -9 -2 -5 -9 2 -16 18 -18 36
-3 24 0 31 9 25 8 -4 10 -3 5 4 -13 22 -34 13 -31 -13 1 -15 -4 -30 -14 -36
-13 -9 -13 -9 4 -4 15 5 17 3 8 -6 -17 -17 -33 -2 -33 32 0 20 4 28 12 23 7
-4 8 -3 4 4 -14 22 -34 13 -31 -14z m0 -44 c-3 -5 -12 -10 -18 -10 -7 0 -6 4
3 10 19 12 23 12 15 0z"/>
<path d="M1594 695 c-4 -8 -10 -13 -14 -10 -5 3 -11 2 -14 -3 -2 -4 -25 -7
-50 -5 -35 2 -54 -3 -82 -22 -20 -14 -32 -26 -25 -26 27 -4 31 -4 29 2 -5 12
25 39 43 39 27 0 24 -18 -3 -23 -13 -2 5 -4 40 -3 45 1 61 4 57 13 -5 15 16
13 27 -2 4 -5 8 3 8 18 0 19 4 26 12 21 7 -4 8 -3 4 4 -10 17 -26 15 -32 -3z
m-44 -35 c0 -5 -9 -10 -20 -10 -11 0 -20 5 -20 10 0 6 9 10 20 10 11 0 20 -4
20 -10z"/>
<path d="M1645 670 c3 -5 -6 -15 -20 -22 -22 -10 -23 -13 -10 -20 17 -10 38
-1 30 13 -4 5 0 9 8 9 7 0 14 7 14 15 0 8 -7 15 -14 15 -8 0 -11 -4 -8 -10z"/>
<path d="M1745 670 c3 -5 -6 -15 -20 -22 -21 -10 -23 -13 -10 -20 8 -5 15 -22
15 -38 0 -25 4 -30 23 -29 17 1 18 2 4 6 -14 4 -17 13 -15 44 1 21 7 39 13 39
7 0 12 7 12 15 0 8 -7 15 -14 15 -8 0 -11 -4 -8 -10z"/>
<path d="M1895 670 c3 -5 -6 -15 -20 -22 -21 -10 -23 -13 -10 -20 8 -5 15 -22
15 -38 0 -17 3 -30 8 -30 4 0 6 20 5 45 -1 30 3 45 11 45 7 0 13 7 13 15 0 8
-7 15 -14 15 -8 0 -11 -4 -8 -10z"/>
<path d="M1780 610 c0 -46 2 -50 23 -49 16 1 18 2 5 6 -13 3 -18 15 -18 43 0
28 5 40 18 43 13 4 11 5 -5 6 -21 1 -23 -3 -23 -49z"/>
<path d="M1930 610 c0 -27 3 -50 8 -50 4 0 6 20 4 44 -3 36 -1 45 15 49 15 4
14 5 -4 6 -21 1 -23 -3 -23 -49z"/>
<path d="M1980 610 c0 -27 3 -50 8 -50 4 0 7 23 7 50 0 28 -3 50 -7 50 -5 0
-8 -22 -8 -50z"/>
<path d="M2030 610 c0 -27 3 -50 8 -50 4 0 7 23 7 50 0 28 -3 50 -7 50 -5 0
-8 -22 -8 -50z"/>
<path d="M2080 610 c0 -27 3 -50 8 -50 4 0 7 23 7 50 0 28 -3 50 -7 50 -5 0
-8 -22 -8 -50z"/>
<path d="M2130 610 c0 -46 2 -50 23 -49 18 1 19 2 4 6 -16 4 -18 13 -15 49 2
24 0 44 -4 44 -5 0 -8 -22 -8 -50z"/>
<path d="M2180 610 c0 -46 2 -50 23 -49 18 1 19 2 4 6 -16 4 -18 13 -15 49 2
24 0 44 -4 44 -5 0 -8 -22 -8 -50z"/>
<path d="M2230 610 c0 -46 2 -50 23 -49 16 1 18 2 5 6 -13 3 -18 15 -18 43 0
28 5 40 18 43 13 4 11 5 -5 6 -21 1 -23 -3 -23 -49z"/>
<path d="M2280 611 c0 -30 5 -51 13 -54 10 -4 10 -6 0 -6 -8 -1 -13 -13 -12
-28 l1 -28 8 25 c5 17 8 19 9 8 1 -26 51 -25 51 1 0 13 8 21 23 23 14 2 23 11
25 26 3 20 0 22 -47 22 -39 0 -51 -4 -54 -17 -3 -10 -5 1 -6 24 -1 32 3 43 17
46 13 4 11 5 -5 6 -21 1 -23 -4 -23 -48z"/>
<path d="M2330 635 c0 -14 2 -25 4 -25 2 0 6 11 8 25 3 14 1 25 -3 25 -5 0 -9
-11 -9 -25z"/>
<path d="M535 618 c-12 -40 -11 -68 1 -68 8 0 14 -9 14 -20 0 -16 7 -20 30
-20 29 0 30 2 30 45 0 43 -1 45 -29 45 -23 0 -31 -5 -35 -22 -2 -13 -4 -6 -2
15 2 37 -1 48 -9 25z"/>
<path d="M622 543 c4 -47 5 -90 2 -94 -3 -5 13 -9 35 -9 34 0 41 -3 41 -20 0
-16 7 -20 35 -20 31 0 35 -3 36 -27 2 -25 2 -25 6 -5 3 13 -1 29 -7 37 -6 8
-9 19 -5 25 4 6 -6 10 -24 10 -26 0 -31 4 -31 25 0 21 -5 25 -30 25 -24 0 -30
-4 -31 -22 -2 -37 -18 53 -18 104 -1 26 -5 49 -9 52 -4 2 -4 -34 0 -81z"/>
<path d="M1480 590 c0 -16 4 -30 8 -30 5 0 7 14 4 30 -2 17 -6 30 -8 30 -2 0
-4 -13 -4 -30z"/>
<path d="M1531 593 c-1 -32 20 -46 34 -23 3 5 0 7 -9 4 -10 -4 -16 3 -19 23
-4 27 -4 27 -6 -4z"/>
<path d="M1199 593 c0 -5 -2 -18 -3 -30 -2 -13 1 -23 6 -23 4 0 8 12 8 26 0
16 4 23 12 18 7 -4 8 -3 4 4 -8 13 -26 16 -27 5z"/>
<path d="M1245 575 c2 -20 -5 -29 -26 -41 -16 -8 -29 -16 -29 -17 0 -1 22 -2
50 -2 33 0 55 6 66 17 16 16 16 16 -2 13 -10 -2 -23 -4 -29 -4 -5 -1 -3 -6 5
-12 13 -9 13 -10 0 -6 -9 2 -16 18 -18 36 -3 24 0 31 9 25 8 -4 10 -3 5 4 -14
22 -34 13 -31 -13z m0 -45 c-3 -5 -12 -10 -18 -10 -7 0 -6 4 3 10 19 12 23 12
15 0z"/>
<path d="M1599 593 c0 -5 -2 -18 -3 -30 -2 -13 1 -23 6 -23 4 0 8 12 8 26 0
16 4 23 12 18 7 -4 8 -3 4 4 -8 13 -26 16 -27 5z"/>
<path d="M1300 570 c-9 -6 -10 -10 -3 -10 6 0 15 5 18 10 8 12 4 12 -15 0z"/>
<path d="M1480 500 c0 -46 2 -50 23 -49 18 1 19 2 4 6 -16 4 -18 13 -15 49 2
24 0 44 -4 44 -5 0 -8 -22 -8 -50z"/>
<path d="M1530 500 c0 -46 2 -50 23 -49 18 1 19 2 4 6 -16 4 -18 13 -15 49 2
24 0 44 -4 44 -5 0 -8 -22 -8 -50z"/>
<path d="M1613 530 c-26 -15 -33 -27 -33 -50 0 -25 4 -30 23 -29 17 1 18 2 4
6 -13 3 -17 12 -15 31 4 39 32 35 36 -5 3 -27 7 -33 25 -32 18 1 19 2 4 6 -16
4 -18 12 -14 49 2 24 4 44 3 44 -1 0 -16 -9 -33 -20z"/>
<path d="M1680 500 c0 -46 2 -50 23 -49 18 1 19 2 4 6 -16 4 -18 13 -15 49 2
24 0 44 -4 44 -5 0 -8 -22 -8 -50z"/>
<path d="M1730 500 c0 -46 2 -50 23 -49 16 1 18 2 5 6 -13 3 -18 15 -18 43 0
28 5 40 18 43 13 4 11 5 -5 6 -21 1 -23 -3 -23 -49z"/>
<path d="M1780 500 c0 -27 3 -50 8 -50 4 0 6 20 4 44 -3 36 -1 45 15 49 15 4
14 5 -4 6 -21 1 -23 -3 -23 -49z"/>
<path d="M1830 500 c0 -27 3 -50 8 -50 4 0 6 20 4 44 -3 36 -1 45 15 49 15 4
14 5 -4 6 -21 1 -23 -3 -23 -49z"/>
<path d="M1880 500 c0 -27 3 -50 8 -50 4 0 7 23 7 50 0 28 -3 50 -7 50 -5 0
-8 -22 -8 -50z"/>
<path d="M1930 500 c0 -27 3 -50 8 -50 4 0 7 23 7 50 0 28 -3 50 -7 50 -5 0
-8 -22 -8 -50z"/>
<path d="M1980 500 c0 -46 2 -50 23 -49 18 1 19 2 4 6 -16 4 -18 13 -15 49 2
24 0 44 -4 44 -5 0 -8 -22 -8 -50z"/>
<path d="M2030 500 c0 -46 2 -50 23 -49 18 1 19 2 4 6 -16 4 -18 13 -15 49 2
24 0 44 -4 44 -5 0 -8 -22 -8 -50z"/>
<path d="M2080 500 c0 -46 2 -50 23 -49 18 1 19 2 4 6 -16 4 -18 13 -15 49 2
24 0 44 -4 44 -5 0 -8 -22 -8 -50z"/>
<path d="M2130 500 c0 -33 4 -50 13 -50 9 0 9 -2 1 -8 -13 -8 -23 -112 -11
-112 4 0 8 24 8 53 1 28 3 44 6 35 7 -26 53 -24 53 2 0 17 7 20 50 20 47 0 50
2 50 25 0 24 -2 25 -74 25 -63 0 -75 -3 -79 -17 -3 -10 -5 1 -6 24 -1 32 3 43
17 46 13 4 11 5 -5 6 -21 1 -23 -3 -23 -49z"/>
<path d="M2181 523 c1 -23 2 -24 6 -6 2 12 12 24 21 26 12 3 10 5 -5 6 -19 1
-23 -4 -22 -26z"/>
<path d="M2231 523 c1 -23 2 -24 6 -6 2 12 12 24 21 26 12 3 10 5 -5 6 -19 1
-23 -4 -22 -26z"/>
<path d="M1387 513 c-4 -3 -7 -19 -7 -35 0 -23 4 -28 23 -27 18 1 19 2 4 6
-15 4 -18 12 -15 34 5 31 5 32 -5 22z"/>
<path d="M1437 513 c-4 -3 -7 -19 -7 -35 0 -23 4 -28 23 -27 18 1 19 2 4 6
-15 4 -18 12 -15 34 5 31 5 32 -5 22z"/>
<path d="M1149 483 c0 -5 -2 -18 -3 -30 -2 -13 1 -23 6 -23 4 0 8 12 8 26 0
16 4 23 12 18 7 -4 8 -3 4 4 -8 13 -26 16 -27 5z"/>
<path d="M1195 465 c2 -20 -5 -29 -26 -41 -16 -8 -29 -16 -29 -17 0 -2 17 -3
37 -2 38 0 38 0 35 39 -3 28 -1 36 9 31 8 -5 10 -4 5 3 -14 22 -34 13 -31 -13z
m0 -45 c-3 -5 -12 -10 -18 -10 -7 0 -6 4 3 10 19 12 23 12 15 0z"/>
<path d="M1245 465 c1 -15 -4 -30 -14 -36 -14 -9 -14 -10 1 -5 10 3 17 2 15
-2 -1 -4 2 -9 8 -12 6 -3 9 10 7 34 -3 28 -1 36 9 31 8 -5 10 -4 5 3 -13 22
-34 13 -31 -13z"/>
<path d="M1295 465 c1 -15 -4 -30 -14 -36 -14 -9 -14 -10 1 -5 10 3 17 2 15
-2 -1 -4 2 -9 8 -12 6 -3 9 10 7 34 -3 28 -1 36 9 31 8 -5 10 -4 5 3 -13 22
-34 13 -31 -13z"/>
<path d="M1345 450 c3 -6 -1 -13 -10 -16 -13 -6 -14 -8 -3 -15 7 -5 8 -9 3 -9
-7 0 -9 -15 -7 -35 3 -28 8 -35 26 -34 17 1 18 2 3 6 -14 4 -17 13 -15 44 1
21 7 39 13 39 7 0 12 7 12 15 0 8 -7 15 -14 15 -8 0 -11 -5 -8 -10z"/>
<path d="M1380 390 c0 -46 2 -50 23 -49 16 1 18 2 5 6 -13 3 -18 15 -18 43 0
28 5 40 18 43 13 4 11 5 -5 6 -21 1 -23 -3 -23 -49z"/>
<path d="M1430 390 c0 -46 2 -50 23 -49 16 1 18 2 5 6 -13 3 -18 15 -18 43 0
28 5 40 18 43 13 4 11 5 -5 6 -21 1 -23 -3 -23 -49z"/>
<path d="M1480 390 c0 -46 2 -50 23 -49 16 1 18 2 5 6 -13 3 -18 15 -18 43 0
28 5 40 18 43 13 4 11 5 -5 6 -21 1 -23 -3 -23 -49z"/>
<path d="M1530 390 c0 -46 2 -50 23 -49 16 1 18 2 5 6 -13 3 -18 15 -18 43 0
28 5 40 18 43 13 4 11 5 -5 6 -21 1 -23 -3 -23 -49z"/>
<path d="M1580 390 c0 -46 2 -50 23 -49 16 1 18 2 5 6 -13 3 -18 15 -18 43 0
28 5 40 18 43 13 4 11 5 -5 6 -21 1 -23 -3 -23 -49z"/>
<path d="M1630 390 c0 -27 3 -50 8 -50 4 0 6 20 4 44 -3 36 -1 45 15 49 15 4
14 5 -4 6 -21 1 -23 -3 -23 -49z"/>
<path d="M1680 390 c0 -27 3 -50 8 -50 4 0 6 20 4 44 -3 36 -1 45 15 49 15 4
14 5 -4 6 -21 1 -23 -3 -23 -49z"/>
<path d="M1730 390 c0 -27 3 -50 8 -50 4 0 6 20 4 44 -3 36 -1 45 15 49 15 4
14 5 -4 6 -21 1 -23 -3 -23 -49z"/>
<path d="M1780 390 c0 -27 3 -50 8 -50 4 0 7 23 7 50 0 28 -3 50 -7 50 -5 0
-8 -22 -8 -50z"/>
<path d="M1830 390 c0 -27 3 -50 8 -50 4 0 7 23 7 50 0 28 -3 50 -7 50 -5 0
-8 -22 -8 -50z"/>
<path d="M1880 390 c0 -33 4 -50 13 -50 9 0 9 -2 1 -8 -15 -9 -23 -112 -9
-112 6 0 9 21 7 50 -3 32 0 50 7 50 6 0 11 12 11 26 0 16 4 23 12 18 7 -4 8
-3 4 4 -10 17 -24 15 -30 -5 -3 -10 -4 3 -3 30 1 26 -1 47 -5 47 -5 0 -8 -22
-8 -50z"/>
<path d="M1930 415 c0 -14 2 -25 4 -25 2 0 6 11 8 25 3 14 1 25 -3 25 -5 0 -9
-11 -9 -25z"/>
<path d="M1981 413 c1 -23 2 -24 6 -6 2 12 12 24 21 26 12 3 10 5 -5 6 -19 1
-23 -4 -22 -26z"/>
<path d="M2031 413 c1 -23 2 -24 6 -6 2 12 12 24 21 26 12 3 10 5 -5 6 -19 1
-23 -4 -22 -26z"/>
<path d="M2081 413 c1 -23 2 -24 6 -6 2 12 12 24 21 26 12 3 10 5 -5 6 -19 1
-23 -4 -22 -26z"/>
<path d="M1228 375 c3 -28 8 -35 26 -34 16 1 17 2 4 6 -12 3 -18 14 -18 34 0
16 -4 29 -8 29 -4 0 -6 -16 -4 -35z"/>
<path d="M1278 375 c3 -28 8 -35 26 -34 16 1 17 2 4 6 -12 3 -18 14 -18 34 0
16 -4 29 -8 29 -4 0 -6 -16 -4 -35z"/>
<path d="M800 361 c0 -11 -6 -22 -12 -24 -7 -3 4 -6 25 -6 30 -1 37 -5 37 -21
0 -18 7 -20 59 -20 60 0 60 0 63 -32 2 -17 9 -33 16 -34 7 -1 8 0 2 3 -5 2
-10 18 -10 33 0 16 -5 32 -11 35 -6 4 -8 13 -5 21 4 10 -3 14 -24 14 -25 0
-30 4 -30 25 0 24 -3 25 -55 25 -48 0 -55 -3 -55 -19z"/>
<path d="M1049 373 c0 -5 -2 -18 -3 -30 -2 -13 1 -23 6 -23 4 0 8 12 8 26 0
16 4 23 12 18 7 -4 8 -3 4 4 -8 13 -26 16 -27 5z"/>
<path d="M1094 355 c3 -19 -5 -29 -29 -44 -25 -15 -34 -27 -37 -55 l-4 -36 57
0 c72 0 88 6 82 31 -4 16 -14 19 -58 19 -48 0 -54 -3 -58 -22 -3 -13 -4 -7 -4
12 l2 35 60 0 60 0 -3 39 c-3 28 -1 36 9 31 8 -5 10 -4 5 3 -13 22 -34 13 -31
-13 1 -15 -4 -30 -14 -36 -13 -9 -13 -9 4 -4 15 5 17 3 8 -6 -17 -17 -33 -2
-33 32 0 20 4 28 12 23 7 -4 8 -3 4 4 -13 22 -34 13 -32 -13z m1 -45 c-3 -5
-12 -10 -18 -10 -7 0 -6 4 3 10 19 12 23 12 15 0z"/>
<path d="M2007 373 c-4 -3 -7 -15 -7 -25 0 -14 -6 -19 -22 -17 -13 2 -36 -5
-53 -14 -16 -9 -24 -16 -17 -17 7 0 12 -14 12 -34 0 -19 3 -37 8 -39 10 -7 9
67 -1 74 -5 3 -2 9 7 12 9 4 15 1 13 -6 -1 -8 14 -12 48 -12 39 0 50 3 49 15
-1 10 8 17 24 18 26 2 42 17 42 40 0 13 -91 18 -103 5z"/>
<path d="M1195 341 c3 -6 -3 -14 -12 -20 -14 -8 -15 -10 -3 -11 9 0 11 -3 5
-8 -6 -4 -7 -24 -4 -47 l6 -40 3 45 c1 25 2 48 1 53 0 4 5 7 12 7 8 0 14 7 14
15 0 8 -7 15 -14 15 -8 0 -12 -4 -8 -9z"/>
<path d="M1231 303 c1 -23 2 -24 6 -6 2 12 12 24 21 26 12 3 10 5 -5 6 -19 1
-23 -4 -22 -26z"/>
<path d="M1281 303 c1 -23 2 -24 6 -6 2 12 12 24 21 26 12 3 10 5 -5 6 -19 1
-23 -4 -22 -26z"/>
<path d="M1331 303 c1 -23 2 -24 6 -6 2 12 12 24 21 26 12 3 10 5 -5 6 -19 1
-23 -4 -22 -26z"/>
<path d="M1381 303 c1 -23 2 -24 6 -6 2 12 12 24 21 26 12 3 10 5 -5 6 -19 1
-23 -4 -22 -26z"/>
<path d="M1431 303 c1 -23 2 -24 6 -6 2 12 12 24 21 26 12 3 10 5 -5 6 -19 1
-23 -4 -22 -26z"/>
<path d="M1481 303 c1 -23 2 -24 6 -6 2 12 12 24 21 26 12 3 10 5 -5 6 -19 1
-23 -4 -22 -26z"/>
<path d="M1531 303 c1 -23 2 -24 6 -6 2 12 12 24 21 26 12 3 10 5 -5 6 -19 1
-23 -4 -22 -26z"/>
<path d="M1581 303 c1 -23 2 -24 6 -6 2 12 12 24 21 26 12 3 10 5 -5 6 -19 1
-23 -4 -22 -26z"/>
<path d="M1630 305 c0 -14 2 -25 4 -25 2 0 6 11 8 25 3 14 1 25 -3 25 -5 0 -9
-11 -9 -25z"/>
<path d="M1680 305 c0 -14 2 -25 4 -25 2 0 6 11 8 25 3 14 1 25 -3 25 -5 0 -9
-11 -9 -25z"/>
<path d="M1730 275 c0 -30 -4 -55 -10 -55 -5 0 -9 3 -9 8 6 36 -2 42 -56 42
-52 0 -55 -1 -55 -25 l0 -25 -170 0 -170 0 0 25 c0 21 -5 25 -30 25 -29 0 -30
-1 -30 -47 l0 -46 123 8 c67 4 127 6 132 5 6 0 60 -4 121 -6 106 -5 112 -5
136 18 20 18 27 35 29 76 2 28 1 52 -3 52 -5 0 -8 -25 -8 -55z"/>
<path d="M1780 305 c0 -14 2 -25 4 -25 2 0 6 11 8 25 3 14 1 25 -3 25 -5 0 -9
-11 -9 -25z"/>
<path d="M1830 305 c0 -14 2 -25 4 -25 2 0 6 11 8 25 3 14 1 25 -3 25 -5 0 -9
-11 -9 -25z"/>
<path d="M1750 244 c0 -24 2 -25 53 -22 45 3 52 6 55 26 3 21 0 22 -52 22 -53
0 -56 -1 -56 -26z"/>
</g>
</svg>
